<?xml version="1.0" encoding="utf-8"?>
<!-- Generator: Adobe Illustrator 24.3.0, SVG Export Plug-In . SVG Version: 6.00 Build 0)  -->
<svg version="1.1" id="Capa_1" xmlns="http://www.w3.org/2000/svg" xmlns:xlink="http://www.w3.org/1999/xlink" x="0px" y="0px"
	 viewBox="0 0 177 71.3" style="enable-background:new 0 0 177 71.3;" xml:space="preserve">
<style type="text/css">
	.st0{fill:#FFFFFF;}
</style>
<path class="st0" d="M116.5,17.6c0,3.1-1.5,5.2-5,5.2s-4.9-2.1-4.9-5.2s1.5-5.2,4.9-5.2S116.5,14.5,116.5,17.6z M108.1,37.4
	l-0.6-0.4l17.4-24.6l0.6,0.4L108.1,37.4z M110.1,17.6c0,3.2,0.2,4.7,1.4,4.7s1.5-1.5,1.5-4.6s-0.2-4.7-1.5-4.7
	S110.1,14.4,110.1,17.6L110.1,17.6z M126.3,32.2c0,3.1-1.5,5.2-5,5.2s-4.9-2.1-4.9-5.2s1.5-5.2,4.9-5.2S126.3,29.1,126.3,32.2
	L126.3,32.2z M119.9,32.2c0,3.2,0.2,4.7,1.4,4.7s1.5-1.5,1.5-4.6s-0.2-4.7-1.5-4.7S119.9,29,119.9,32.2L119.9,32.2z"/>
<path class="st0" d="M23.7,37h-1.9v-5.2h-5.3V37h-1.9V25.5h1.9v4.7h5.3v-4.7h1.9L23.7,37z"/>
<path class="st0" d="M32,37l-0.4-1.2h-0.1c-0.3,0.5-0.8,0.8-1.3,1.1c-0.5,0.2-1.1,0.3-1.6,0.3c-0.7,0-1.4-0.2-2-0.7
	c-0.5-0.5-0.8-1.3-0.7-2c0-0.8,0.3-1.5,1-2c0.9-0.5,2-0.8,3.1-0.7h1.5v-0.5c0-0.5-0.1-0.9-0.4-1.2c-0.3-0.3-0.8-0.5-1.2-0.4
	c-0.4,0-0.9,0.1-1.3,0.2s-0.8,0.3-1.2,0.5l-0.6-1.3c0.5-0.3,1-0.4,1.6-0.6c0.5-0.1,1.1-0.2,1.6-0.2c0.9-0.1,1.8,0.2,2.5,0.7
	c0.6,0.6,0.9,1.4,0.8,2.3V37H32z M29.2,35.7c0.6,0,1.2-0.2,1.6-0.6c0.4-0.4,0.7-1,0.6-1.6v-0.8h-1.1c-0.7,0-1.3,0.1-1.9,0.4
	c-0.4,0.3-0.6,0.7-0.6,1.2c0,0.3,0.1,0.7,0.4,0.9C28.5,35.6,28.8,35.8,29.2,35.7L29.2,35.7z"/>
<path class="st0" d="M41.8,34.5c0.1,0.8-0.3,1.5-0.9,2c-0.8,0.5-1.7,0.7-2.7,0.7s-1.9-0.1-2.8-0.5V35c0.9,0.4,1.9,0.7,2.9,0.7
	c1.2,0,1.7-0.3,1.7-1c0-0.2-0.1-0.4-0.2-0.6c-0.2-0.2-0.4-0.3-0.6-0.5c-0.4-0.2-0.8-0.4-1.2-0.5c-0.7-0.2-1.4-0.6-2-1.2
	c-0.4-0.4-0.6-1-0.5-1.5c0-0.7,0.3-1.4,0.9-1.7c0.7-0.4,1.6-0.7,2.5-0.6c1,0,2,0.2,2.9,0.6L41,30.1c-0.7-0.3-1.6-0.5-2.4-0.6
	c-1,0-1.5,0.3-1.5,0.8c0,0.3,0.2,0.5,0.4,0.7c0.5,0.3,1.1,0.6,1.7,0.8c0.6,0.2,1.1,0.5,1.6,0.8c0.3,0.2,0.6,0.5,0.7,0.8
	C41.7,33.8,41.8,34.2,41.8,34.5z"/>
<path class="st0" d="M47,35.7c0.5,0,0.9-0.1,1.4-0.2v1.4c-0.3,0.1-0.5,0.2-0.8,0.2c-0.3,0.1-0.7,0.1-1,0.1c-1.8,0-2.6-0.9-2.6-2.8
	v-4.7h-1.2v-0.8l1.2-0.7l0.6-1.8h1.2v1.9h2.5v1.4h-2.5v4.7c0,0.4,0.1,0.7,0.3,1C46.4,35.6,46.7,35.7,47,35.7z"/>
<path class="st0" d="M55.6,37l-0.4-1.2h-0.1c-0.3,0.5-0.8,0.8-1.3,1.1c-0.5,0.2-1.1,0.3-1.7,0.3c-0.7,0-1.4-0.2-2-0.7
	c-0.5-0.5-0.8-1.3-0.7-2c0-0.8,0.3-1.5,1-2c0.9-0.5,2-0.8,3.1-0.8H55v-0.5c0-0.4-0.1-0.9-0.4-1.2c-0.3-0.3-0.8-0.5-1.2-0.4
	c-0.4,0-0.9,0.1-1.3,0.2c-0.4,0.1-0.8,0.3-1.2,0.5L50.3,29c0.5-0.3,1-0.5,1.6-0.6c0.5-0.1,1.1-0.2,1.6-0.2c0.9-0.1,1.8,0.2,2.5,0.7
	c0.6,0.6,0.9,1.4,0.8,2.3V37H55.6z M52.8,35.7c0.6,0,1.2-0.2,1.6-0.6c0.4-0.4,0.6-1,0.6-1.6v-0.8h-1c-0.7,0-1.3,0.1-1.9,0.4
	c-0.4,0.3-0.6,0.7-0.6,1.2c0,0.3,0.1,0.7,0.3,0.9C52.1,35.6,52.5,35.8,52.8,35.7L52.8,35.7z"/>
<path class="st0" d="M141.4,31c0.1,1.6-0.5,3.2-1.6,4.4c-1.3,1.1-2.9,1.6-4.6,1.5H132V25.3h3.6c1.6-0.1,3.1,0.4,4.3,1.5
	C141,27.9,141.5,29.4,141.4,31z M139.4,31.1c0-2.8-1.3-4.2-3.9-4.2h-1.6v8.4h1.3C138.1,35.3,139.4,33.8,139.4,31.1L139.4,31.1z"/>
<path class="st0" d="M147,35.5c0.5,0,0.9-0.1,1.4-0.2v1.4c-0.3,0.1-0.5,0.2-0.8,0.2c-0.3,0.1-0.7,0.1-1,0.1c-1.8,0-2.6-0.9-2.6-2.8
	v-4.7h-1.2v-0.8L144,28l0.6-1.8h1.1v1.9h2.5v1.4h-2.5v4.7c0,0.4,0.1,0.7,0.3,1C146.4,35.4,146.7,35.5,147,35.5z"/>
<path class="st0" d="M157.8,32.5c0.1,1.2-0.3,2.4-1.1,3.3c-0.8,0.8-1.9,1.3-3.1,1.2c-0.8,0-1.5-0.2-2.2-0.6
	c-0.6-0.4-1.1-0.9-1.4-1.6c-0.4-0.8-0.5-1.6-0.5-2.4c-0.1-1.2,0.3-2.4,1.1-3.3c0.8-0.8,1.9-1.3,3.1-1.2c1.1-0.1,2.2,0.4,3,1.2
	C157.5,30.1,157.9,31.3,157.8,32.5z M151.5,32.5c0,2,0.7,3,2.2,3s2.2-1,2.2-3s-0.7-3-2.2-3c-0.7-0.1-1.3,0.2-1.7,0.8
	C151.6,30.9,151.4,31.7,151.5,32.5z"/>
<path class="st0" d="M159.7,35.9c0-0.3,0.1-0.6,0.3-0.9c0.2-0.2,0.5-0.3,0.9-0.3c0.3,0,0.6,0.1,0.9,0.3c0.4,0.5,0.4,1.2,0,1.8
	c-0.5,0.4-1.2,0.4-1.7,0C159.8,36.5,159.7,36.2,159.7,35.9z"/>
<path class="st0" d="M177,71.3H0V0h177V71.3z M20.4,70.3H176V1H1v69.3H20.4z"/>
<g>
	<path class="st0" d="M20.3,52.1c-0.8,0-1.4,0.3-1.9,0.9s-0.7,1.4-0.7,2.4c0,1.1,0.2,1.8,0.7,2.4s1.1,0.8,1.9,0.8
		c0.4,0,0.7,0,1.1-0.1s0.7-0.2,1.1-0.3v1.2c-0.7,0.3-1.4,0.4-2.3,0.4c-1.3,0-2.2-0.4-2.9-1.1c-0.7-0.7-1-1.8-1-3.3
		c0-0.9,0.2-1.7,0.5-2.3s0.8-1.2,1.4-1.5s1.3-0.5,2.2-0.5s1.7,0.2,2.4,0.6l-0.5,1.2c-0.3-0.1-0.6-0.3-0.9-0.4S20.6,52.1,20.3,52.1z"
		/>
	<path class="st0" d="M29.5,59.6l-0.9-2.4h-3.3l-0.8,2.4H23l3.2-8.6h1.5l3.2,8.6C30.9,59.6,29.5,59.6,29.5,59.6z M28.3,56l-0.8-2.3
		c-0.1-0.2-0.1-0.4-0.2-0.7s-0.2-0.6-0.2-0.7c-0.1,0.5-0.3,1-0.5,1.6l-0.8,2.2L28.3,56L28.3,56z"/>
	<path class="st0" d="M39.3,59.6h-1.7l-4.2-6.8l0,0v0.4c0.1,0.7,0.1,1.4,0.1,2v4.5h-1.3v-8.6h1.7l4.2,6.8l0,0c0-0.1,0-0.4,0-1
		s0-1,0-1.3v-4.5h1.3L39.3,59.6L39.3,59.6z"/>
	<path class="st0" d="M45.2,52.1c-0.8,0-1.4,0.3-1.9,0.9s-0.7,1.4-0.7,2.4c0,1.1,0.2,1.8,0.7,2.4s1.1,0.8,1.9,0.8
		c0.4,0,0.7,0,1.1-0.1s0.7-0.2,1.1-0.3v1.2c-0.7,0.3-1.4,0.4-2.3,0.4c-1.3,0-2.2-0.4-2.9-1.1s-1-1.8-1-3.3c0-0.9,0.2-1.7,0.5-2.3
		s0.8-1.2,1.4-1.5s1.3-0.5,2.2-0.5s1.7,0.2,2.4,0.6l-0.5,1.2c-0.3-0.1-0.6-0.3-0.9-0.4S45.6,52.1,45.2,52.1z"/>
	<path class="st0" d="M54,59.6h-4.8V51H54v1.2h-3.4v2.3h3.2v1.2h-3.2v2.7H54V59.6z"/>
	<path class="st0" d="M55.9,59.6V51h1.4v7.4h3.6v1.2C60.9,59.6,55.9,59.6,55.9,59.6z"/>
	<path class="st0" d="M67.7,59.6l-0.9-2.4h-3.3l-0.8,2.4h-1.5l3.2-8.6H66l3.2,8.6H67.7z M66.5,56l-0.8-2.3c-0.1-0.2-0.1-0.4-0.2-0.7
		s-0.2-0.6-0.2-0.7c-0.1,0.5-0.3,1-0.5,1.6L64,56H66.5z"/>
	<path class="st0" d="M73.9,52.1c-0.8,0-1.4,0.3-1.9,0.9s-0.7,1.4-0.7,2.4c0,1.1,0.2,1.8,0.7,2.4s1.1,0.8,1.9,0.8
		c0.4,0,0.7,0,1.1-0.1s0.7-0.2,1.1-0.3v1.2c-0.7,0.3-1.4,0.4-2.3,0.4c-1.3,0-2.2-0.4-2.9-1.1s-1-1.8-1-3.3c0-0.9,0.2-1.7,0.5-2.3
		s0.8-1.2,1.4-1.5s1.3-0.7,2.2-0.7s1.7,0.2,2.4,0.6l-0.5,1.2c-0.3-0.1-0.6-0.3-0.9-0.4S74.3,52.1,73.9,52.1z"/>
	<path class="st0" d="M77.9,59.6V51h1.4v8.6H77.9z"/>
	<path class="st0" d="M89.2,55.3c0,1.4-0.3,2.5-1,3.3s-1.7,1.2-3,1.2s-2.3-0.4-3-1.2s-1-1.9-1-3.3s0.3-2.5,1-3.3s1.7-1.1,3-1.1
		s2.3,0.4,3,1.2S89.2,53.9,89.2,55.3z M82.6,55.3c0,1.1,0.2,1.9,0.6,2.4s1.1,0.8,1.9,0.8s1.5-0.3,1.9-0.8s0.6-1.3,0.6-2.4
		c0-1.1-0.2-1.8-0.6-2.4s-1-0.8-1.9-0.8c-0.8,0-1.5,0.3-1.9,0.8S82.6,54.2,82.6,55.3z M84.3,50.3L84.3,50.3c0.2-0.4,0.5-0.7,0.7-1
		s0.4-0.6,0.6-0.9h1.6v0.1c-0.2,0.2-0.5,0.5-0.9,0.9s-0.7,0.7-1,0.9C85.3,50.3,84.3,50.3,84.3,50.3z"/>
	<path class="st0" d="M98.2,59.6h-1.7l-4.2-6.8l0,0v0.4c0.1,0.7,0.1,1.4,0.1,2v4.5H91v-8.6h1.7l4.2,6.8l0,0c0-0.1,0-0.4,0-1
		s0-1,0-1.3v-4.5h1.3V59.6z"/>
	<path class="st0" d="M107,54.9h3.2v4.3c-0.5,0.2-1,0.3-1.5,0.4s-1,0.1-1.5,0.1c-1.3,0-2.3-0.4-3-1.2s-1.1-1.9-1.1-3.2
		c0-1.4,0.4-2.5,1.2-3.2c0.8-0.7,1.9-1.2,3.3-1.2c0.9,0,1.7,0.2,2.5,0.5l-0.5,1.2c-0.7-0.3-1.4-0.5-2.1-0.5c-0.9,0-1.6,0.3-2.2,0.9
		c-0.6,0.6-0.8,1.4-0.8,2.4s0.2,1.8,0.7,2.4s1.2,0.8,2.1,0.8c0.5,0,0.9-0.1,1.5-0.2v-2.2H107V54.9z"/>
	<path class="st0" d="M113.6,56.2v3.4h-1.4V51h2.4c1.1,0,1.9,0.2,2.5,0.6c0.6,0.4,0.8,1,0.8,1.9c0,1.1-0.6,1.8-1.7,2.3l2.4,3.8H117
		l-2.1-3.4C114.9,56.2,113.6,56.2,113.6,56.2z M113.6,55h1c0.7,0,1.1-0.1,1.4-0.4s0.4-0.6,0.4-1.1s-0.2-0.8-0.5-1s-0.8-0.3-1.4-0.3
		h-0.9V55z"/>
	<path class="st0" d="M125.2,59.6l-0.9-2.4H121l-0.8,2.4h-1.5l3.2-8.6h1.5l3.2,8.6C126.6,59.6,125.2,59.6,125.2,59.6z M124,56
		l-0.8-2.3c-0.1-0.2-0.1-0.4-0.2-0.7s-0.2-0.6-0.2-0.7c-0.1,0.5-0.3,1-0.5,1.6l-0.8,2.2L124,56L124,56z"/>
	<path class="st0" d="M130.8,59.6h-1.4v-7.4h-2.5V51h6.4v1.2h-2.5V59.6z"/>
	<path class="st0" d="M141.4,51v5.5c0,0.6-0.1,1.2-0.4,1.7s-0.7,0.8-1.2,1.1s-1.1,0.4-1.8,0.4c-1.1,0-1.9-0.3-2.5-0.8
		s-0.9-1.3-0.9-2.3v-5.5h1.4v5.4c0,0.7,0.2,1.2,0.5,1.6s0.8,0.5,1.5,0.5c1.3,0,2-0.7,2-2.1v-5.4L141.4,51L141.4,51z"/>
	<path class="st0" d="M143.5,59.6V51h1.4v8.6H143.5z"/>
	<path class="st0" d="M150.2,59.6h-1.4v-7.4h-2.5V51h6.4v1.2h-2.5V59.6z"/>
	<path class="st0" d="M159.3,59.6l-0.9-2.4h-3.3l-0.8,2.4h-1.5L156,51h1.5l3.2,8.6H159.3z M158.1,56l-0.8-2.3
		c-0.1-0.2-0.1-0.4-0.2-0.7s-0.2-0.6-0.2-0.7c-0.1,0.5-0.3,1-0.5,1.6l-0.8,2.2L158.1,56L158.1,56z"/>
</g>
<g>
	<path class="st0" d="M75.8,28.1c0,1.4,0.3,2.4,0.8,2.9c0.5,0.5,1.4,0.8,2.8,0.8v1c-3.6-0.1-5.8-0.2-6.8-0.2c-1.1,0-3.5,0-7.1,0.1
		l-1.4,0v-1c1.5,0,2.7-0.3,3.5-0.9c0.8-0.6,1.2-1.6,1.2-3.2V15.7c0-1.6-0.1-2.7-0.4-3.5c-0.3-0.7-0.7-1.2-1.4-1.5
		c-0.7-0.2-1.7-0.4-3-0.4V9.3c2.9-0.1,5.2-0.3,7.1-0.7c1.8-0.4,3.5-1,4.9-1.9V28.1z"/>
	<path class="st0" d="M99.5,13.8c-0.7-0.2-3-0.2-6.9-0.2H85L84.2,22c1.9-1.3,4.4-2,7.5-2c3.2,0,5.6,0.7,7.2,2.2
		c1.6,1.4,2.4,3.3,2.4,5.6c0,2.4-1,4.6-2.9,6.5c-1.9,1.9-4.4,3.3-7.4,4.4c-3,1-6.1,1.5-9.3,1.5v-0.9c2.1,0,4-0.5,5.9-1.4
		c1.9-0.9,3.4-2.2,4.5-3.9s1.7-3.7,1.7-6c0-2.1-0.5-3.7-1.5-4.8c-1-1.1-2.4-1.7-4.2-1.7c-0.9,0-1.7,0.1-2.4,0.3
		c-0.7,0.2-1.4,0.6-2.1,1.1l-0.7-0.4l1.6-15.5c0.7,0.1,1.5,0.2,2.7,0.2h8.1c1,0,1.6-0.1,2-0.4c0.4-0.3,0.6-0.8,0.7-1.5h1
		C99.3,9.3,99.4,12.1,99.5,13.8z"/>
</g>
</svg>
