<?xml version="1.0" encoding="utf-8"?>
<!-- Generator: Adobe Illustrator 23.0.3, SVG Export Plug-In . SVG Version: 6.00 Build 0)  -->
<svg version="1.1" xmlns="http://www.w3.org/2000/svg" xmlns:xlink="http://www.w3.org/1999/xlink" x="0px" y="0px"
	 viewBox="0 0 4818.9 1417.32" style="enable-background:new 0 0 4818.9 1417.32;" xml:space="preserve">
<style type="text/css">
	.st0{fill:#FFFFFF;}
</style>
<g id="logo">
	<g>
		<g>
			<path class="st0" d="M952.25,959.2v136.72h-18.68v-65.17h-84.99v65.17h-18.91V959.2h18.91v55.6h84.99v-55.6H952.25z"/>
			<path class="st0" d="M1036.81,975.83c12.08-12.3,29.62-19.14,51.72-19.14c20.74,0,38.05,6.15,50.13,17.54
				c12.99,12.08,20.28,30.08,20.28,53.32c0,20.73-5.7,37.14-16.18,49.22c-12.08,14.13-30.53,21.65-54.23,21.65
				c-21.65,0-39.42-6.61-51.5-18.68c-12.3-12.08-18.91-29.85-18.91-52.18C1018.13,1005.68,1024.73,987.91,1036.81,975.83z
				 M1125.9,985.86c-8.89-8.66-21.42-13.22-37.37-13.22c-16.18,0-28.94,4.56-37.6,13.67c-9.11,9.12-13.9,23.01-13.9,41.24
				c0,17.09,4.1,30.3,12.3,39.65c8.66,10.03,22.1,15.27,39.19,15.27c17.32,0,30.53-5.24,39.42-15.5
				c7.75-9.34,12.08-22.56,12.08-39.42C1140.03,1009.33,1135.02,995.2,1125.9,985.86z"/>
			<path class="st0" d="M1208.62,959.2h132.16v15.95h-56.74v120.77h-18.91V975.15h-56.51V959.2z"/>
			<path class="st0" d="M1402.03,959.2h108.23v15.95h-89.32v40.56h79.75v15.95h-79.75v48.31h92.51v15.95h-111.42V959.2z"/>
			<path class="st0" d="M1681.39,1079.96v15.95h-105.27V959.2h18.91v120.77H1681.39z"/>
			<path class="st0" d="M1753.26,968.77c11.17-8.43,28.71-12.08,51.5-12.08c20.51,0,34.41,2.73,51.72,9.57l-5.47,14.13
				c-15.27-5.01-29.17-7.52-45.8-7.52c-17.09,0-30.53,2.28-38.05,7.29c-5.01,3.19-7.52,7.29-7.52,12.99c0,5.01,1.82,8.89,5.7,11.39
				c4.56,3.42,11.62,5.24,20.74,6.61l32.36,5.24c18,2.96,31.22,6.61,39.42,14.36c6.15,6.15,9.34,13.9,9.34,25.29
				c0,13.22-5.47,23.47-16.41,30.53c-12.08,7.75-28.94,11.85-53.55,11.85c-20.51,0-38.05-3.19-56.05-9.57l5.01-14.58
				c16.18,5.24,35.32,7.75,50.58,7.75c17.32,0,31.67-1.82,41.47-7.97c6.38-3.87,10.03-9.8,10.03-18.46
				c0-15.72-14.35-18.68-32.13-21.42l-35.32-5.47c-12.76-1.82-22.33-5.24-29.17-10.48c-6.84-5.24-10.94-12.99-10.94-23.24
				C1740.72,983.35,1745.28,974.69,1753.26,968.77z"/>
			<path class="st0" d="M2042.42,1082.47c-7.97-7.75-12.3-18.68-12.3-31.22c0-7.98,1.6-15.5,5.01-21.88
				c3.65-7.29,9.11-12.99,16.41-17.09c-6.61-6.84-9.57-13.9-9.57-22.33c0-11.62,5.7-19.6,13.9-24.84
				c9.11-5.92,21.87-8.43,33.95-8.43c20.05,0,38.28,4.33,50.36,13.44l-7.75,12.08c-10.94-6.15-25.98-9.8-42.61-9.8
				c-7.75,0-16.63,1.37-22.56,5.24c-4.1,2.73-6.84,6.61-6.84,11.85c0,5.92,2.28,10.71,8.66,15.72l65.4,50.36
				c2.05-4.1,3.65-8.66,5.01-13.67c1.37-5.47,2.28-11.85,2.28-18.68l-21.19-2.05v-12.08h56.51v12.53l-18,1.82
				c-0.23,8.2-1.14,15.72-2.96,23.01c-1.59,7.06-4.33,13.67-7.75,19.82l12.3,9.57c5.01,3.87,8.2,5.47,15.72,6.38l2.96,0.68
				l-1.59,12.99h-3.87c-11.85,0-17.54-1.82-24.61-7.06l-11.17-8.43c-5.47,5.24-11.62,9.57-18.91,12.76c-8.2,3.42-18,5.24-29.17,5.24
				C2069.08,1098.42,2052.44,1092.72,2042.42,1082.47z M2109.41,1079.51c5.7-2.05,10.94-5.24,15.27-9.57l-61.29-47.4
				c-5.47,3.19-9.11,7.29-11.62,12.76c-2.28,4.56-3.19,9.57-3.19,15.72c0,7.98,2.73,15.04,8.2,20.51
				c6.61,6.84,17.54,11.17,32.81,11.17C2097.1,1082.7,2103.48,1081.79,2109.41,1079.51z"/>
			<path class="st0" d="M2412.24,959.2c15.95,0,28.71,5.01,37.83,14.13c7.52,7.97,11.85,18.91,11.85,32.81
				c0,11.85-4.56,23.01-12.53,31.44c-5.01,5.24-11.85,9.8-19.6,12.3l28.94,46.03h-20.96l-25.98-43.07h-48.08v43.07h-18.91V959.2
				H2412.24z M2435.93,984.49c-5.24-5.92-13.22-9.34-23.7-9.34h-48.53v61.75h48.08c9.34,0,17.55-2.96,23.01-8.66
				c5.24-5.24,8.2-12.76,8.2-22.33C2443,997.25,2440.72,989.73,2435.93,984.49z"/>
			<path class="st0" d="M2527.88,959.2h108.23v15.95h-89.32v40.56h79.75v15.95h-79.75v48.31h92.51v15.95h-111.42V959.2z"/>
			<path class="st0" d="M2711.7,968.77c11.17-8.43,28.71-12.08,51.5-12.08c20.51,0,34.41,2.73,51.72,9.57l-5.47,14.13
				c-15.27-5.01-29.17-7.52-45.8-7.52c-17.09,0-30.53,2.28-38.05,7.29c-5.01,3.19-7.52,7.29-7.52,12.99c0,5.01,1.82,8.89,5.7,11.39
				c4.56,3.42,11.62,5.24,20.74,6.61l32.36,5.24c18,2.96,31.22,6.61,39.42,14.36c6.15,6.15,9.34,13.9,9.34,25.29
				c0,13.22-5.47,23.47-16.41,30.53c-12.08,7.75-28.94,11.85-53.55,11.85c-20.51,0-38.05-3.19-56.05-9.57l5.01-14.58
				c16.18,5.24,35.32,7.75,50.58,7.75c17.32,0,31.67-1.82,41.47-7.97c6.38-3.87,10.03-9.8,10.03-18.46
				c0-15.72-14.36-18.68-32.13-21.42l-35.32-5.47c-12.76-1.82-22.33-5.24-29.17-10.48c-6.84-5.24-10.94-12.99-10.94-23.24
				C2699.16,983.35,2703.72,974.69,2711.7,968.77z"/>
			<path class="st0" d="M2903.03,975.83c12.08-12.3,29.62-19.14,51.72-19.14c20.74,0,38.05,6.15,50.13,17.54
				c12.99,12.08,20.28,30.08,20.28,53.32c0,20.73-5.7,37.14-16.18,49.22c-12.08,14.13-30.53,21.65-54.23,21.65
				c-21.65,0-39.42-6.61-51.5-18.68c-12.3-12.08-18.91-29.85-18.91-52.18C2884.35,1005.68,2890.96,987.91,2903.03,975.83z
				 M2992.13,985.86c-8.89-8.66-21.42-13.22-37.37-13.22c-16.18,0-28.94,4.56-37.6,13.67c-9.11,9.12-13.9,23.01-13.9,41.24
				c0,17.09,4.1,30.3,12.3,39.65c8.66,10.03,22.1,15.27,39.19,15.27c17.32,0,30.53-5.24,39.42-15.5
				c7.75-9.34,12.08-22.56,12.08-39.42C3006.25,1009.33,3001.24,995.2,2992.13,985.86z"/>
			<path class="st0" d="M3158.49,959.2c15.95,0,28.71,5.01,37.83,14.13c7.52,7.97,11.85,18.91,11.85,32.81
				c0,11.85-4.56,23.01-12.53,31.44c-5.01,5.24-11.85,9.8-19.6,12.3l28.94,46.03h-20.96l-25.98-43.07h-48.08v43.07h-18.91V959.2
				H3158.49z M3182.19,984.49c-5.24-5.92-13.22-9.34-23.7-9.34h-48.53v61.75h48.08c9.34,0,17.55-2.96,23.01-8.66
				c5.24-5.24,8.2-12.76,8.2-22.33C3189.25,997.25,3186.98,989.73,3182.19,984.49z"/>
			<path class="st0" d="M3262.99,959.2h132.16v15.95h-56.74v120.77h-18.91V975.15h-56.51V959.2z"/>
			<path class="st0" d="M3464.13,968.77c11.17-8.43,28.71-12.08,51.5-12.08c20.51,0,34.41,2.73,51.72,9.57l-5.47,14.13
				c-15.27-5.01-29.17-7.52-45.8-7.52c-17.09,0-30.53,2.28-38.05,7.29c-5.01,3.19-7.52,7.29-7.52,12.99c0,5.01,1.82,8.89,5.7,11.39
				c4.56,3.42,11.62,5.24,20.74,6.61l32.36,5.24c18,2.96,31.22,6.61,39.42,14.36c6.15,6.15,9.34,13.9,9.34,25.29
				c0,13.22-5.47,23.47-16.41,30.53c-12.08,7.75-28.94,11.85-53.55,11.85c-20.51,0-38.05-3.19-56.05-9.57l5.01-14.58
				c16.18,5.24,35.32,7.75,50.58,7.75c17.32,0,31.67-1.82,41.47-7.97c6.38-3.87,10.03-9.8,10.03-18.46
				c0-15.72-14.36-18.68-32.13-21.42l-35.32-5.47c-12.76-1.82-22.33-5.24-29.17-10.48c-6.84-5.24-10.94-12.99-10.94-23.24
				C3451.59,983.35,3456.15,974.69,3464.13,968.77z"/>
		</g>
		<g>
			<path class="st0" d="M3881.91,602.37c-0.19,0-0.38-0.02-0.57-0.05c-1.65-0.28-2.86-1.7-2.88-3.37
				c-0.55-68.74,37-114.67,47.11-125.78c-41.98-39.81-98.85-41.62-99.43-41.63c-1.67-0.04-3.07-1.28-3.32-2.93
				c-0.25-1.65,0.73-3.25,2.32-3.78c65.2-21.76,120.49-0.25,134.19,5.94c24.84-52.15,9.03-106.88,8.87-107.43
				c-0.48-1.6,0.27-3.32,1.76-4.06c1.5-0.75,3.31-0.31,4.31,1.03c40.85,55.29,37.47,114.52,35.82,129.45
				c57.26,7.51,104.43-24.43,104.91-24.76c1.38-0.95,3.24-0.77,4.41,0.42c1.17,1.19,1.32,3.06,0.35,4.42
				c-39.96,55.93-97.34,71.02-112.05,74.07c10.55,56.79,55.51,91.77,55.97,92.13c1.33,1.02,1.74,2.84,0.96,4.33
				c-0.77,1.48-2.49,2.2-4.09,1.69c-65.55-20.72-97.63-70.63-105.07-83.68c-50.75,27.59-70.13,81.15-70.32,81.7
				C3884.67,601.46,3883.35,602.37,3881.91,602.37z"/>
		</g>
		<g>
			<path class="st0" d="M737.71,460.66v283.45H698.5V460.66H737.71z M884.84,744.12V460.66h167.57c25.98,0,48.66,8.03,63.78,23.62
				c11.81,11.81,18.9,28.35,18.9,47.72c0,12.28-3.31,23.62-8.97,33.07c-5.2,8.5-11.82,15.12-20.32,20.78v2.37
				c13.23,5.67,24.09,14.64,31.66,25.51c9.44,13.23,14.65,28.82,14.65,46.3c0,23.62-9.93,44.41-25.98,59.05
				c-17.01,15.59-41.1,25.04-66.14,25.04H884.84z M1084.07,504.6c-8.03-7.08-19.84-11.81-34.96-11.81H924.05v82.68h132.61
				c11.82,0,22.21-5.2,29.29-13.23c6.61-7.56,10.4-17.48,10.4-28.35C1096.35,522.55,1092.1,512.16,1084.07,504.6z M1102.01,625.07
				c-9.91-11.81-25.03-17.95-41.57-17.95H924.05v104.88h134.5c17.01,0,31.66-5.67,41.1-15.59c8.97-8.98,14.18-21.73,14.18-36.85
				C1113.83,645.38,1109.58,633.57,1102.01,625.07z M1278.39,460.66h239.85v33.07H1317.6v84.09h180.81l-9.35,33.07H1317.6v100.15
				h207.26v33.07h-246.47V460.66z M1797.3,460.66c33.07,0,59.52,10.4,78.42,29.29c15.59,16.53,24.56,39.21,24.56,68.03
				c0,24.56-9.44,47.71-25.98,65.19c-10.38,10.87-24.56,20.31-40.62,25.51l59.99,95.43h-43.46l-53.86-89.29h-109.03v89.29h-39.21
				V460.66H1797.3z M1846.42,513.1c-10.87-12.28-27.39-19.37-49.12-19.37h-109.98v128.03h109.03c19.37,0,36.38-6.14,47.71-17.95
				c10.87-10.87,17.01-26.45,17.01-46.3C1861.07,539.56,1856.34,523.97,1846.42,513.1z M2049.83,495.15
				c25.04-25.51,67.52-39.68,113.34-39.68c42.99,0,85,12.76,110.03,36.37c26.93,25.04,42.05,62.36,42.05,110.55
				c0,42.99-11.82,77-33.55,102.04c-25.03,29.29-69.4,44.88-118.53,44.88c-44.88,0-87.83-13.7-112.86-38.74
				c-25.51-25.04-39.21-61.88-39.21-108.18C2011.1,557.04,2024.79,520.19,2049.83,495.15z M2246.75,515.94
				c-18.43-17.95-50.51-27.4-83.58-27.4c-33.54,0-66.1,9.45-84.05,28.35c-18.9,18.89-28.81,47.71-28.81,85.51
				c0,35.43,8.5,62.83,25.5,82.2c17.96,20.78,51.93,31.65,87.36,31.65c35.91,0,69.4-10.87,87.83-32.13
				c16.06-19.36,25.04-46.77,25.04-81.72C2276.04,564.6,2265.65,535.31,2246.75,515.94z M2752.02,460.66h280.51v33.07h-120.88
				v250.38h-39.21V493.73h-120.42V460.66z M3233.4,460.66l128.49,283.45h-41.57l-25.04-55.27h-172.2l-25.04,55.27h-40.16
				l128.5-283.45H3233.4z M3137.71,655.77h142.93l-69.92-158.73h-3.08L3137.71,655.77z M3606.24,460.66
				c33.07,0,59.52,10.4,78.42,29.29c15.59,16.53,24.56,39.21,24.56,68.03c0,24.56-9.44,47.71-25.98,65.19
				c-10.38,10.87-24.56,20.31-40.62,25.51l59.99,95.43h-43.46l-53.86-89.29h-109.03v89.29h-39.21V460.66H3606.24z M3655.36,513.1
				c-10.87-12.28-27.39-19.37-49.12-19.37h-109.98v128.03h109.03c19.37,0,36.38-6.14,47.71-17.95
				c10.87-10.87,17.01-26.45,17.01-46.3C3670.01,539.56,3665.28,523.97,3655.36,513.1z M2447.05,480.51
				c23.14-17.48,59.52-25.04,106.76-25.04c42.52,0,71.33,5.67,107.24,19.84v32.87c-36.12-12.72-71.82-19.17-106.3-19.17
				c-35.43,0-63.3,4.72-78.89,15.12c-10.4,6.61-15.59,15.12-15.59,26.93c0,10.39,3.77,18.42,11.81,23.62
				c9.46,7.08,24.09,10.87,42.99,13.7l67.08,10.87c37.32,6.14,64.72,13.7,81.73,29.76c12.76,12.76,19.37,28.82,19.37,52.44
				c0,27.4-11.34,48.66-34.02,63.31c-25.03,16.06-60,24.57-111.01,24.57c-42.52,0-75.91-7.59-113.23-20.82l0.43-33.36
				c34.97,12.52,80.21,20.16,111.85,20.16c35.91,0,65.67-3.78,85.98-16.53c13.23-8.03,20.79-20.31,20.79-38.26
				c0-32.6-29.76-38.74-66.61-44.41l-73.23-11.34c-26.45-3.78-46.29-10.87-60.47-21.73c-14.18-10.87-22.67-26.93-22.67-48.19
				C2421.07,510.74,2430.51,492.79,2447.05,480.51z"/>
		</g>
	</g>
</g>
<g id="guias">
</g>
</svg>
